<?xml version="1.0" encoding="UTF-8" standalone="no"?>
<!-- Generator: Adobe Illustrator 27.5.0, SVG Export Plug-In . SVG Version: 6.00 Build 0)  -->

<svg
   version="1.1"
   x="0px"
   y="0px"
   viewBox="0 0 624.55017 1547.0465"
   xml:space="preserve"
   id="svg116"
   sodipodi:docname="2838939_417701-PDQC57-237.svg"
   inkscape:version="1.3.2 (1:1.3.2+202311252150+091e20ef0f)"
   width="624.55017"
   height="1547.0465"
   xmlns:inkscape="http://www.inkscape.org/namespaces/inkscape"
   xmlns:sodipodi="http://sodipodi.sourceforge.net/DTD/sodipodi-0.dtd"
   xmlns:xlink="http://www.w3.org/1999/xlink"
   xmlns="http://www.w3.org/2000/svg"
   xmlns:svg="http://www.w3.org/2000/svg"><defs
   id="defs116" /><sodipodi:namedview
   id="namedview116"
   pagecolor="#505050"
   bordercolor="#eeeeee"
   borderopacity="1"
   inkscape:showpageshadow="0"
   inkscape:pageopacity="0"
   inkscape:pagecheckerboard="0"
   inkscape:deskcolor="#505050"
   inkscape:zoom="0.35355339"
   inkscape:cx="-32.526912"
   inkscape:cy="967.32207"
   inkscape:window-width="1850"
   inkscape:window-height="1016"
   inkscape:window-x="70"
   inkscape:window-y="27"
   inkscape:window-maximized="1"
   inkscape:current-layer="g104" />

<g
   id="OBJECTS"
   transform="translate(-229.27509,-18.910988)">
	
	<g
   id="g104">
		<linearGradient
   id="SVGID_1_"
   gradientUnits="userSpaceOnUse"
   x1="69.848503"
   y1="426.89911"
   x2="173.08321"
   y2="329.65881">
			<stop
   offset="0"
   style="stop-color:#FF8533"
   id="stop1" />
			<stop
   offset="0.9964"
   style="stop-color:#FFD052"
   id="stop2" />
		</linearGradient>
		
		
			<linearGradient
   id="SVGID_00000160162573702835933690000002652692118933001150_"
   gradientUnits="userSpaceOnUse"
   x1="117.0295"
   y1="382.84219"
   x2="180.6624"
   y2="320.2356"
   gradientTransform="matrix(0.99813532,-0.99813532,0.99813532,0.99813532,-241.01806,200.65009)">
			<stop
   offset="0.0036"
   style="stop-color:#FFD052"
   id="stop3" />
			<stop
   offset="1"
   style="stop-color:#FFE9AE"
   id="stop4" />
		</linearGradient>
		<path
   style="fill:#f6a400;fill-opacity:1;stroke-width:0.999999"
   d="m 539.39993,1178.179 c -19.20983,0.2995 -196.15679,89.1266 -87.88567,258.4601 l 93.92495,129.3184 89.84869,-132.1838 C 738.23797,1261.1498 570.37328,1177.6968 539.39993,1178.179 Z"
   id="path4"
   sodipodi:nodetypes="scccs"
   inkscape:export-filename="../../../Área de Trabalho/fogo.png"
   inkscape:export-xdpi="96"
   inkscape:export-ydpi="96" />
		
			<linearGradient
   id="SVGID_00000021120579933271667990000010954085504587891894_"
   gradientUnits="userSpaceOnUse"
   x1="235.86031"
   y1="351.3223"
   x2="176.2907"
   y2="253.9489">
			<stop
   offset="0"
   style="stop-color:#767B7F"
   id="stop5" />
			<stop
   offset="1"
   style="stop-color:#A3A3A3"
   id="stop6" />
		</linearGradient>
		<polygon
   style="fill:#91a7cb;fill-opacity:1;stroke-width:0.418125"
   points="217.209,322.546 175.712,281.49 187.147,269.984 228.644,311.041 "
   id="polygon6"
   transform="matrix(2.6640133,-1.0735432,2.6640133,1.0735432,-786.76323,1008.8254)"
   inkscape:export-filename="../../Vídeos/Arquivos de Kdenlive/MdV/Portal do cliente/animation/foguete.png"
   inkscape:export-xdpi="120"
   inkscape:export-ydpi="120" />
		
			<linearGradient
   id="SVGID_00000006675803322179712660000002822720773626087082_"
   gradientUnits="userSpaceOnUse"
   x1="146.99809"
   y1="246.4599"
   x2="242.4566"
   y2="355.55551"
   gradientTransform="rotate(-45,258.02681,240.04108)">
			<stop
   offset="0.0036"
   style="stop-color:#e72c51;stop-opacity:1;"
   id="stop7" />
			<stop
   offset="1"
   style="stop-color:#8F1931"
   id="stop8" />
		</linearGradient>
		<path
   style="fill:#2c73b5;fill-opacity:1;stroke-width:0.999999"
   d="m 339.29391,862.65198 c 0,0 -110.2582,95.0893 -110.01844,179.58112 0.25845,91.1706 18.54955,184.7574 68.10285,295.1088 26.44299,58.8853 25.18024,-28.0468 27.62048,-82.4353 4.27308,-95.2171 29.71708,-118.8176 87.92843,-155.3279 0.003,0 -26.72005,-77.7945 -73.63332,-236.92672 z"
   id="path8" />
		
		
			<linearGradient
   id="SVGID_00000029739166162850371570000003709137725622775170_"
   gradientUnits="userSpaceOnUse"
   x1="248.0439"
   y1="381.8685"
   x2="217.3649"
   y2="227.271">
			<stop
   offset="0.0036"
   style="stop-color:#F02E54"
   id="stop9" />
			<stop
   offset="1"
   style="stop-color:#8F1931"
   id="stop10" />
		</linearGradient>
		<path
   style="fill:#2c73b5;fill-opacity:1;stroke-width:0.999999"
   d="m 742.69747,860.50211 c 0,0 110.84159,93.90913 111.12396,178.40099 0.30366,91.1732 -17.41199,184.9518 -66.28066,295.8227 -26.078,59.1651 -25.3534,-27.7777 -28.12932,-82.1395 -4.86182,-95.1665 -30.44967,-118.4953 -88.88213,-154.3849 -0.004,0 26.23521,-78.0716 72.16815,-237.69929 z"
   id="path10" />
		
			<linearGradient
   id="SVGID_00000167378373421248081000000007652402937094683050_"
   gradientUnits="userSpaceOnUse"
   x1="276.0368"
   y1="151.45779"
   x2="346.65771"
   y2="318.25089">
			<stop
   offset="0.0036"
   style="stop-color:#EEF4FA"
   id="stop11" />
			<stop
   offset="1"
   style="stop-color:#CDDEED"
   id="stop12" />
		</linearGradient>
		<path
   style="fill:#eef4fa;fill-opacity:1;stroke-width:0.999999"
   d="M 679.75215,150.8942 C 586.17599,23.181401 538.39692,18.910988 538.39692,18.910988 c 0,0 -47.75241,4.781902 -140.54,133.485722 -98.00374,135.93929 -100.32677,282.10304 -100.88621,382.65888 -0.7246,130.09977 40.24792,386.82538 115.9592,564.52041 l 128.79437,-1.3586 128.79972,-0.015 C 745.13503,919.7054 784.52245,662.55082 782.99598,532.46439 781.81849,431.91922 778.58972,285.78741 679.75215,150.89511 Z"
   id="path12" />
		
			<linearGradient
   id="SVGID_00000183928140803438553240000012492891663482804114_"
   gradientUnits="userSpaceOnUse"
   x1="285.68039"
   y1="169.9507"
   x2="345.5925"
   y2="311.45181">
			<stop
   offset="0.0036"
   style="stop-color:#EEF4FA"
   id="stop13" />
			<stop
   offset="1"
   style="stop-color:#CDDEED"
   id="stop14" />
		</linearGradient>
		<path
   style="fill:#eef4fa;fill-opacity:1;stroke-width:0.999999"
   d="m 445.5987,1099.2324 96.12558,-1.015 128.79972,-0.015 C 745.13503,919.7054 784.52245,662.55082 782.99598,532.46439 781.81581,431.91654 778.58972,285.7821 679.75215,150.89511 586.17599,23.182305 538.39692,18.911893 538.39692,18.911893"
   id="path14" />
		
			
		
			<linearGradient
   id="SVGID_00000167398217355287565870000011993372679249938575_"
   gradientUnits="userSpaceOnUse"
   x1="173.0094"
   y1="238.2029"
   x2="236.75031"
   y2="316.84689">
			<stop
   offset="0"
   style="stop-color:#C7C7C7"
   id="stop15" />
			<stop
   offset="1"
   style="stop-color:#A3A3A3"
   id="stop16" />
		</linearGradient>
		<path
   style="fill:#b4c6e3;fill-opacity:1;stroke-width:0.999999"
   d="m 412.92991,1099.576 128.79437,-1.3586 128.79972,-0.015 c 15.0783,-36.0761 28.69674,-75.3916 40.84733,-116.19632 l -340.00803,1.81156 c 12.40896,40.67416 26.26716,79.84586 41.56661,115.75936 z"
   id="path16" />
		
			<linearGradient
   id="SVGID_00000060749083211426504250000017387970973577751968_"
   gradientUnits="userSpaceOnUse"
   x1="219.37669"
   y1="276.72931"
   x2="232.41991"
   y2="316.94571">
			<stop
   offset="0"
   style="stop-color:#1D262D"
   id="stop17" />
			<stop
   offset="1"
   style="stop-color:#1D262D;stop-opacity:0"
   id="stop18" />
		</linearGradient>
		
		
			
		
			<linearGradient
   id="SVGID_00000166668406032975857270000010847872611123944594_"
   gradientUnits="userSpaceOnUse"
   x1="360.38751"
   y1="107.8113"
   x2="492.18759"
   y2="213.5191"
   gradientTransform="rotate(-45,258.02681,240.04108)">
			<stop
   offset="0.0036"
   style="stop-color:#F02E54"
   id="stop19" />
			<stop
   offset="1"
   style="stop-color:#8F1931"
   id="stop20" />
		</linearGradient>
		<path
   style="fill:#2c73b5;fill-opacity:1;stroke-width:0.999999"
   d="m 538.39692,18.910988 c 0,0 -47.75241,4.781902 -140.54,133.485722 -30.06339,41.70513 -51.09578,84.3693 -65.86243,126.38344 L 746.3951,276.57169 C 731.37007,234.71472 710.07396,192.27699 679.75215,150.8942 586.17867,23.184065 538.39692,18.910988 538.39692,18.910988 Z"
   id="path20" />
		
		
			
		
			<linearGradient
   id="SVGID_00000034079956274065940410000011284792949217302690_"
   gradientUnits="userSpaceOnUse"
   x1="171.3046"
   y1="278.1467"
   x2="246.03419"
   y2="385.0383">
			<stop
   offset="0.0036"
   style="stop-color:#F02E54"
   id="stop25" />
			<stop
   offset="1"
   style="stop-color:#8F1931"
   id="stop26" />
		</linearGradient>
		<path
   style="fill:#2c73b5;fill-opacity:1;stroke-width:0.999999"
   d="m 541.05827,882.35769 c 0,0 -24.31975,-5.2348 -23.74702,179.78891 0.56746,185.0237 10.80793,352.5689 25.38806,352.4916 14.58016,-0.077 23.78431,-167.7262 23.21421,-352.7473 -0.57009,-185.02642 -24.85525,-179.53321 -24.85525,-179.53321 z"
   id="path26" />
		
		<g
   id="g100"
   transform="matrix(2.6640133,-2.6640133,2.6640133,2.6640133,-786.76323,840.58862)"
   style="stroke-width:0.265429">
			
				<linearGradient
   id="SVGID_00000090276942098749032370000010462756989182712226_"
   gradientUnits="userSpaceOnUse"
   x1="300.983"
   y1="223.30969"
   x2="327.96521"
   y2="279.8038"
   gradientTransform="translate(82.515941,26.033559)">
				<stop
   offset="0"
   style="stop-color:#1D262D"
   id="stop27" />
				<stop
   offset="0.6767"
   style="stop-color:#1D262D;stop-opacity:0.3233"
   id="stop28" />
				<stop
   offset="1"
   style="stop-color:#1D262D;stop-opacity:0"
   id="stop29" />
			</linearGradient>
			
			<path
   style="fill:#b4c6e3;fill-opacity:1;stroke-width:0.265429"
   d="m 322.96464,235.03164 c 16.662,-16.801 16.549,-43.926 -0.251,-60.587 -16.799,-16.661 -43.925,-16.549 -60.587,0.251 -16.661,16.8 -16.548,43.926 0.251,60.587 16.8,16.661 43.926,16.548 60.587,-0.251 z"
   id="path30" />
			
				<linearGradient
   id="SVGID_00000075143102097043498900000013463713587220256150_"
   gradientUnits="userSpaceOnUse"
   x1="273.293"
   y1="159.3252"
   x2="326.29361"
   y2="283.3147"
   gradientTransform="translate(38.960903,65.308718)">
				<stop
   offset="0"
   style="stop-color:#C7C7C7"
   id="stop30" />
				<stop
   offset="1"
   style="stop-color:#A3A3A3"
   id="stop31" />
			</linearGradient>
			
			<path
   style="fill:#3eb4f8;fill-opacity:1;stroke-width:0.265429"
   d="m 268.862,228.187 c -12.947,-12.84 -13.034,-33.821 -0.194,-46.768 12.84,-12.947 33.821,-13.034 46.768,-0.194 12.947,12.84 13.034,33.821 0.194,46.768 -12.84,12.947 -33.821,13.034 -46.768,0.194 z"
   id="path32" />
			
				<linearGradient
   id="SVGID_00000111162341869300591630000017792864103194519211_"
   gradientUnits="userSpaceOnUse"
   x1="266.98071"
   y1="166.5192"
   x2="329.61789"
   y2="262.24179"
   gradientTransform="translate(75.296005,47.421931)">
				<stop
   offset="0"
   style="stop-color:#ADE5FF"
   id="stop32" />
				<stop
   offset="1"
   style="stop-color:#76C9F0"
   id="stop33" />
			</linearGradient>
			
			
			<g
   id="g99"
   style="stroke-width:0.265429">
				
				
				
			</g>
		</g>
		
		
		<g
   style="opacity:0.48"
   id="g101">
			<defs
   id="defs100"><path
     id="SVGID_00000119803337629906626330000007032763038121392817_"
     style="opacity:0.48"
     d="m 404.692,145.799 c 6.407,-41.533 -1.759,-51.302 -1.759,-51.302 0,0 -9.86,-8.065 -51.431,-1.324 -43.908,7.12 -71.777,34.117 -90.755,52.885 -19.591,19.374 -49.328,58.858 -70.272,98.186 -5.306,9.964 -10.048,19.917 -13.917,29.531 l 24.428,23.918 24.177,24.171 c 47.505,-19.498 103.162,-60.37 127.291,-85.072 18.65,-19.092 45.471,-47.125 52.238,-90.993 z" /></defs>
			<clipPath
   id="SVGID_00000007398494843698180970000000974795701924044441_">
				<use
   xlink:href="#SVGID_00000119803337629906626330000007032763038121392817_"
   style="overflow:visible"
   id="use100" />
			</clipPath>
			
				<linearGradient
   id="SVGID_00000033362350932083546490000002645157462194400951_"
   gradientUnits="userSpaceOnUse"
   x1="452.4097"
   y1="295.32489"
   x2="307.99539"
   y2="205.1447">
				<stop
   offset="0"
   style="stop-color:#1D262D"
   id="stop100" />
				<stop
   offset="1"
   style="stop-color:#1D262D;stop-opacity:0"
   id="stop101" />
			</linearGradient>
			
				
		</g>
		
			<linearGradient
   id="SVGID_00000068649770467586281840000008681526445048899484_"
   gradientUnits="userSpaceOnUse"
   x1="245.784"
   y1="289.8139"
   x2="260.73129"
   y2="323.29959"
   gradientTransform="translate(36.957724,37.222363)">
			<stop
   offset="0"
   style="stop-color:#1D262D"
   id="stop102" />
			<stop
   offset="1"
   style="stop-color:#1D262D;stop-opacity:0"
   id="stop103" />
		</linearGradient>
		
		
	</g>
</g>

</svg>
