<?xml version="1.0" encoding="UTF-8" standalone="no"?>
<!-- Created with Inkscape (http://www.inkscape.org/) -->

<svg
   version="1.1"
   id="svg1186"
   width="1902.4569"
   height="269.22049"
   viewBox="0 0 1902.4569 269.2205"
   sodipodi:docname="siganet.svg"
   inkscape:version="1.3.2 (1:1.3.2+202311252150+091e20ef0f)"
   xml:space="preserve"
   xmlns:inkscape="http://www.inkscape.org/namespaces/inkscape"
   xmlns:sodipodi="http://sodipodi.sourceforge.net/DTD/sodipodi-0.dtd"
   xmlns="http://www.w3.org/2000/svg"
   xmlns:svg="http://www.w3.org/2000/svg"><defs
     id="defs1190" /><sodipodi:namedview
     id="namedview1188"
     pagecolor="#505050"
     bordercolor="#eeeeee"
     borderopacity="1"
     inkscape:pageshadow="0"
     inkscape:pageopacity="0"
     inkscape:pagecheckerboard="0"
     showgrid="false"
     inkscape:zoom="0.23347448"
     inkscape:cx="216.29773"
     inkscape:cy="1321.3435"
     inkscape:window-width="1920"
     inkscape:window-height="1043"
     inkscape:window-x="1920"
     inkscape:window-y="0"
     inkscape:window-maximized="1"
     inkscape:current-layer="g495132"
     inkscape:showpageshadow="0"
     inkscape:deskcolor="#505050" /><g
     inkscape:groupmode="layer"
     inkscape:label="Image"
     id="g1192"
     style="display:inline"
     transform="translate(322.55041,-458.57079)"><g
       id="g495132"
       transform="matrix(55.503906,0,0,55.503906,-1403.684,-25775.779)"
       inkscape:export-filename="/home/reginaldo/g494212.png"
       inkscape:export-xdpi="250"
       inkscape:export-ydpi="250"
       inkscape:label="siganet"><path
         id="path62003-89-3-6-1"
         d="m 20.756556,474.54907 c 0.230959,-0.10872 0.467583,-0.17072 0.733786,-0.19219 0.05507,-0.005 0.232924,-0.003 0.290526,0.001 0.257826,0.022 0.49497,0.085 0.718392,0.19093 l 0.0386,0.0183 0.01809,8e-5 c 0.01597,7e-5 0.01957,-6.1e-4 0.03003,-0.006 0.02218,-0.0122 0.03794,-0.0359 0.04066,-0.0616 0.0014,-0.0137 -0.0015,-0.053 -0.0094,-0.12401 -0.05287,-0.47305 -0.234083,-0.924 -0.515315,-1.2823 -0.123055,-0.15676 -0.264288,-0.29581 -0.414654,-0.40825 -0.02918,-0.0219 -0.03588,-0.0252 -0.05339,-0.0269 -0.02458,-0.002 -0.03249,0.002 -0.0861,0.043 -0.188495,0.14526 -0.357778,0.32732 -0.495864,0.53323 -0.199982,0.29824 -0.336837,0.64934 -0.395738,1.01533 -0.0145,0.0901 -0.02851,0.21956 -0.02667,0.24638 0.0016,0.0245 0.01337,0.0464 0.03188,0.0597 0.01385,0.0107 0.02597,0.0137 0.04296,0.0122 0.01222,-6e-4 0.01911,-0.003 0.05233,-0.0188 z"
         style="display:inline;fill:#3fad4a;fill-opacity:1;stroke-width:0.00212633"
         inkscape:connector-curvature="0"
         inkscape:export-filename="../../Ãrea de Trabalho/Nova pasta/Siganet_logo esverdeada.png"
         inkscape:export-xdpi="300"
         inkscape:export-ydpi="300" /><path
         id="path62003-7-6-6-7-2"
         d="m 19.696925,475.82993 c -0.034,0.0794 -0.06136,0.15061 -0.08389,0.21839 -0.07652,0.23031 -0.12035,0.46682 -0.13213,0.71294 -0.0021,0.0454 -0.0021,0.0473 0.0029,0.0505 0.0106,0.006 0.06812,0.0382 0.09847,0.0538 0.392799,0.20221 0.837481,0.26606 1.265207,0.18166 0.124245,-0.0245 0.261727,-0.0663 0.380234,-0.11575 0.08871,-0.037 0.177572,-0.082 0.191727,-0.0972 0.01802,-0.0194 0.0248,-0.0453 0.01908,-0.0731 -0.0052,-0.0255 -0.0106,-0.0323 -0.05294,-0.0685 -0.27984,-0.23829 -0.502535,-0.53867 -0.656383,-0.88536 -0.06665,-0.15016 -0.111684,-0.28074 -0.150947,-0.43756 -0.03363,-0.13426 -0.05246,-0.23717 -0.06859,-0.37447 -0.0046,-0.0381 -0.0091,-0.0515 -0.02379,-0.0673 -0.01768,-0.0191 -0.04593,-0.0267 -0.06844,-0.0187 -0.02569,0.009 -0.146647,0.113 -0.230637,0.19773 -0.08154,0.0823 -0.150736,0.16281 -0.219147,0.25542 -0.06025,0.0815 -0.10774,0.15518 -0.168266,0.26086 -0.0145,0.0254 -0.09042,0.17817 -0.102544,0.20643 z"
         style="display:inline;fill:#2b71b6;fill-opacity:0.996078;stroke:#ffffff;stroke-width:0.00212633"
         inkscape:connector-curvature="0"
         inkscape:export-filename="/home/reginaldo/g494212.png"
         inkscape:export-xdpi="250"
         inkscape:export-ydpi="250" /><path
         id="path62003-8-4-1-5-7"
         d="m 22.899393,477.07082 c 0.07845,-0.006 0.147332,-0.0153 0.211109,-0.0272 0.216697,-0.0402 0.421974,-0.11529 0.618747,-0.22624 0.03627,-0.0205 0.0377,-0.0216 0.0377,-0.028 0,-0.0138 -0.0043,-0.0852 -0.0072,-0.12233 -0.03842,-0.48172 -0.209979,-0.94501 -0.488091,-1.31816 -0.08078,-0.10841 -0.181593,-0.22099 -0.278814,-0.31146 -0.07276,-0.0677 -0.15191,-0.1315 -0.170758,-0.13777 -0.02398,-0.008 -0.04749,-0.002 -0.06618,0.0179 -0.01724,0.0179 -0.01986,0.0263 -0.0268,0.0853 -0.04573,0.39005 -0.168044,0.7555 -0.360494,1.07716 -0.08338,0.1393 -0.162255,0.24797 -0.264389,0.36404 -0.08746,0.0994 -0.157888,0.16882 -0.256385,0.25273 -0.02729,0.0233 -0.03534,0.0346 -0.04035,0.0566 -0.006,0.0266 0.0021,0.058 0.0196,0.0757 0.02006,0.0203 0.160626,0.0861 0.268047,0.12554 0.104286,0.0382 0.201255,0.0653 0.307091,0.0856 0.09323,0.0179 0.173954,0.0274 0.286022,0.0337 0.02696,0.002 0.183164,-6.1e-4 0.21111,-0.003 z"
         style="display:inline;fill:#f6a522;fill-opacity:1;stroke-width:0.00212633"
         inkscape:connector-curvature="0"
         inkscape:export-filename="/home/reginaldo/g494212.png"
         inkscape:export-xdpi="250"
         inkscape:export-ydpi="250" /><path
         id="path118-3-6-6-8-5-9"
         style="fill:#4d4d4d;fill-opacity:1;fill-rule:evenodd;stroke-width:0.317647"
         d="m 51.249109,474.35845 v 2.29808 h -0.795671 v -2.29808 h -1.570283 v -0.50154 h 3.942905 v 0.50154 z"
         inkscape:connector-curvature="0"
         inkscape:export-filename="/home/reginaldo/g494212.png"
         inkscape:export-xdpi="250"
         inkscape:export-ydpi="250" /><path
         id="path120-7-9-2-9-6-3"
         style="fill:#4d4d4d;fill-opacity:1;fill-rule:evenodd;stroke-width:0.317647"
         d="m 44.613713,476.6565 v -2.79957 h 3.503046 v 0.47556 h -2.706321 v 0.62685 h 1.5802 v 0.47402 h -1.5802 v 0.69572 h 2.739427 v 0.52742 z"
         inkscape:connector-curvature="0"
         inkscape:export-filename="/home/reginaldo/g494212.png"
         inkscape:export-xdpi="250"
         inkscape:export-ydpi="250" /><path
         id="path122-4-3-6-1-2-6"
         style="fill:#4d4d4d;fill-opacity:1;fill-rule:evenodd;stroke-width:0.317647"
         d="m 39.856718,476.6566 v -2.79958 h 0.543678 l 2.408978,1.64831 c 0.08175,0.0566 0.153597,0.11015 0.21667,0.15747 0.06303,0.0476 0.119178,0.0964 0.171238,0.14822 -0.01291,-0.15597 -0.02151,-0.26604 -0.02538,-0.33183 -0.0043,-0.0656 -0.0065,-0.11616 -0.0065,-0.15295 v -1.46941 h 0.714979 v 2.79957 h -0.543613 l -2.511806,-1.72923 c -0.06088,-0.0443 -0.1138,-0.0841 -0.15919,-0.1209 -0.04539,-0.0351 -0.08734,-0.0718 -0.126062,-0.10713 0.01075,0.0871 0.01936,0.16823 0.02431,0.24477 0.0065,0.0749 0.0065,0.14219 0.0065,0.19877 v 1.5137 z"
         inkscape:connector-curvature="0"
         inkscape:export-filename="/home/reginaldo/g494212.png"
         inkscape:export-xdpi="250"
         inkscape:export-ydpi="250" /><path
         id="path124-5-7-7-5-9-0"
         style="fill:#4d4d4d;fill-opacity:1;fill-rule:evenodd;stroke-width:0.317647"
         d="m 39.115031,473.08096 0.0065,0.92814 -0.164783,-0.009 v 2.6559 l -2.072033,-0.004 v -0.44799 h 1.38915 l -0.0043,-2.07334 H 38.08499 l -0.262986,0.11617 -0.255221,0.17898 -0.184575,0.15274 -0.214261,0.19275 -0.193394,0.20028 -0.266278,0.34548 -0.232052,0.37154 -0.204366,0.43887 -0.145853,0.46182 -0.119392,0.44748 -0.437687,0.47142 c 0.02818,-0.42403 0.08863,-0.87116 0.204365,-1.35779 l 0.139184,-0.48316 0.19447,-0.43573 0.168011,-0.34411 0.184574,-0.26907 0.297256,-0.4205 0.330405,-0.35005 0.295061,-0.25539 0.313842,-0.17898 0.362437,-0.16522 0.414433,-0.11767 0.310506,-0.0353 z"
         inkscape:connector-curvature="0"
         inkscape:export-filename="/home/reginaldo/g494212.png"
         inkscape:export-xdpi="250"
         inkscape:export-ydpi="250" /><path
         id="path126-2-4-5-4-1-6"
         style="fill:#4d4d4d;fill-opacity:1;fill-rule:evenodd;stroke-width:0.317647"
         d="m 34.06406,474.35843 h -2.486422 v 1.76903 h 2.486422 v -0.62237 h -1.300713 v -0.47393 h 2.074184 v 0.96177 c 0,0.25685 -0.05744,0.43269 -0.174679,0.52444 -0.115951,0.0934 -0.340345,0.13919 -0.672987,0.13919 h -2.360404 c -0.332643,0 -0.55695,-0.0458 -0.672988,-0.13919 -0.11724,-0.0919 -0.174678,-0.26759 -0.174678,-0.52444 v -1.4724 c 0,-0.25385 0.05744,-0.42817 0.174678,-0.52297 0.115951,-0.0932 0.340345,-0.14069 0.672988,-0.14069 h 2.360404 c 0.32819,0 0.5514,0.0458 0.669631,0.13596 0.119393,0.0918 0.177906,0.25839 0.177906,0.49999 v 0.0626 l -0.773471,0.11164 z"
         inkscape:connector-curvature="0"
         inkscape:export-filename="/home/reginaldo/g494212.png"
         inkscape:export-xdpi="250"
         inkscape:export-ydpi="250" /><path
         id="path128-5-5-69-9-2-2"
         style="fill:#4d4d4d;fill-opacity:1;fill-rule:evenodd;stroke-width:0.317647"
         d="m 29.252899,476.65654 v -2.79965 h 0.795607 v 2.79965 z"
         inkscape:connector-curvature="0"
         inkscape:export-filename="/home/reginaldo/g494212.png"
         inkscape:export-xdpi="250"
         inkscape:export-ydpi="250" /><path
         id="path130-4-25-8-2-7-6"
         style="fill:#4d4d4d;fill-opacity:1;fill-rule:evenodd;stroke-width:0.317647"
         d="m 27.772577,474.34457 h -2.241118 v 0.6055 h 2.13388 c 0.334859,0 0.560264,0.0458 0.678516,0.13918 0.117241,0.0916 0.175755,0.26456 0.175755,0.5183 v 0.38537 c 0,0.25373 -0.05851,0.42811 -0.175755,0.52291 -0.118317,0.0932 -0.343657,0.1407 -0.678516,0.1407 h -2.114024 c -0.334751,0 -0.560135,-0.0473 -0.678451,-0.1407 -0.117242,-0.0949 -0.176831,-0.26918 -0.176831,-0.52291 v -0.0749 l 0.702782,-0.12241 v 0.33182 h 2.41911 v -0.63603 h -2.133988 c -0.332578,0 -0.556907,-0.0461 -0.672944,-0.14068 -0.117241,-0.0949 -0.175755,-0.26759 -0.175755,-0.52144 v -0.30881 c 0,-0.25384 0.05851,-0.42809 0.175755,-0.52291 0.115951,-0.0931 0.340366,-0.14069 0.672944,-0.14069 h 1.94268 c 0.321564,0 0.543721,0.0445 0.665329,0.13445 0.121544,0.0886 0.182209,0.24928 0.182209,0.47862 v 0.0581 l -0.701642,0.13445 z"
         inkscape:connector-curvature="0"
         inkscape:export-filename="/home/reginaldo/g494212.png"
         inkscape:export-xdpi="250"
         inkscape:export-ydpi="250" /><path
         id="path66889-7-5-0-1"
         d="m 53.228544,473.81536 c -0.06608,-0.008 -0.149021,-0.04 -0.207377,-0.0791 -0.03622,-0.0244 -0.09078,-0.0783 -0.115646,-0.11448 -0.06458,-0.0934 -0.09579,-0.21083 -0.08394,-0.31627 0.01334,-0.11247 0.06108,-0.21275 0.139009,-0.28851 0.0771,-0.0746 0.171452,-0.11882 0.280536,-0.131 0.135674,-0.015 0.282007,0.0382 0.379812,0.13901 0.0751,0.0773 0.119485,0.17253 0.131167,0.28195 0.01503,0.13568 -0.03855,0.28083 -0.139175,0.37838 -0.04088,0.0395 -0.07309,0.0622 -0.125157,0.0871 -0.08277,0.0395 -0.1706,0.0543 -0.259396,0.0432 z m 0.129999,-0.0973 c 0.07593,-0.015 0.131,-0.0452 0.186302,-0.098 0.07609,-0.0728 0.115311,-0.16421 0.115311,-0.26914 0,-0.10497 -0.03922,-0.1964 -0.115311,-0.26916 -0.07309,-0.0699 -0.157532,-0.10396 -0.257892,-0.10396 -0.100294,0 -0.184783,0.034 -0.257893,0.10396 -0.0761,0.0728 -0.11531,0.16421 -0.11531,0.26916 0,0.10497 0.03921,0.19641 0.11531,0.26914 0.0544,0.0519 0.109637,0.0813 0.185015,0.0981 0.0322,0.007 0.110641,0.007 0.144517,-1.1e-4 z m -0.277985,-0.37749 v -0.24597 l 0.103297,5e-5 c 0.155363,3e-5 0.203508,0.008 0.239519,0.0409 0.02452,0.0222 0.03354,0.0431 0.03571,0.0824 0.005,0.0626 -0.01719,0.10396 -0.06642,0.12665 l -0.02401,0.01 0.01719,0.008 c 0.02804,0.0134 0.04739,0.0397 0.09362,0.13167 0.02388,0.0476 0.04339,0.0876 0.04339,0.0888 0,10e-4 -0.02953,0.002 -0.06575,0.002 h -0.06575 l -0.03638,-0.0729 c -0.0514,-0.10313 -0.06391,-0.11464 -0.122987,-0.11464 l -0.02605,-2e-5 v 0.0938 0.0938 h -0.06258 -0.06258 z m 0.223933,-0.0349 c 0.02185,-0.01 0.02804,-0.0219 0.02953,-0.0521 0.0013,-0.0239 1.16e-4,-0.0299 -0.0083,-0.0424 -0.01333,-0.0194 -0.02987,-0.0245 -0.07943,-0.0247 l -0.04072,-1.8e-4 v 0.0617 c 0,0.034 0.0013,0.0633 0.0016,0.0652 0.005,0.005 0.08277,-6.1e-4 0.09579,-0.008 z"
         style="fill:#4d4d4d;fill-opacity:1;stroke-width:0.00416887"
         inkscape:connector-curvature="0"
         inkscape:export-filename="/home/reginaldo/g494212.png"
         inkscape:export-xdpi="250"
         inkscape:export-ydpi="250" /></g></g></svg>
